RobotoSerifMicro-SuperWideItalic.ufo
<glyph name="quotesingle" format="2">
  <advance width="343"/>
  <unicode hex="0027"/>
  <outline>
    <contour>
      <point x="405" y="769" type="line"/>
      <point x="374" y="668"/>
      <point x="310" y="597"/>
      <point x="264" y="447" type="curve"/>
      <point x="131" y="447" type="line"/>
      <point x="177" y="597"/>
      <point x="156" y="667"/>
      <point x="187" y="769" type="curve"/>
    </contour>
  </outline>
</glyph>
<glyph name="E" format="2">
  <advance width="877"/>
  <unicode hex="0045"/>
  <anchor x="501" y="741" name="top"/>
  <anchor x="573" y="0" name="right"/>
  <anchor x="501" y="0" name="bottom"/>
  <outline>
    <contour>
      <point x="795" y="224" type="line"/>
      <point x="664" y="224" type="line"/>
      <point x="617" y="143" type="line" smooth="yes"/>
      <point x="597" y="107"/>
      <point x="562" y="98"/>
      <point x="467" y="98" type="curve" smooth="yes"/>
      <point x="330" y="98" type="line"/>
      <point x="491" y="612" type="line"/>
      <point x="622" y="612" type="line" smooth="yes"/>
      <point x="691" y="612"/>
      <point x="727" y="603"/>
      <point x="724" y="567" type="curve" smooth="yes"/>
      <point x="720" y="511" type="line"/>
      <point x="848" y="511" type="line"/>
      <point x="901" y="710" type="line"/>
      <point x="165" y="710" type="line"/>
      <point x="135" y="610" type="line"/>
      <point x="148" y="610" type="line" smooth="yes"/>
      <point x="184" y="610"/>
      <point x="209" y="603"/>
      <point x="200" y="574" type="curve" smooth="yes"/>
      <point x="64" y="137" type="line" smooth="yes"/>
      <point x="54" y="108"/>
      <point x="26" y="101"/>
      <point x="-9" y="101" type="curve" smooth="yes"/>
      <point x="-23" y="101" type="line"/>
      <point x="-53" y="0" type="line"/>
      <point x="729" y="0" type="line"/>
    </contour>
    <contour>
      <point x="408" y="408" type="curve"/>
      <point x="383" y="322" type="line"/>
      <point x="484" y="313"/>
      <point x="585" y="306"/>
      <point x="684" y="298" type="curve"/>
      <point x="724" y="433" type="line"/>
      <point x="619" y="425"/>
      <point x="513" y="417"/>
    </contour>
  </outline>
</glyph>
<glyph name="F" format="2">
  <advance width="834"/>
  <unicode hex="0046"/>
  <outline>
    <contour>
      <point x="-53" y="0" type="line"/>
      <point x="404" y="0" type="line"/>
      <point x="434" y="101" type="line"/>
      <point x="410" y="101" type="line" smooth="yes"/>
      <point x="368" y="101"/>
      <point x="332" y="104"/>
      <point x="334" y="111" type="curve" smooth="yes"/>
      <point x="491" y="612" type="line"/>
      <point x="619" y="612" type="line" smooth="yes"/>
      <point x="688" y="612"/>
      <point x="724" y="603"/>
      <point x="721" y="567" type="curve" smooth="yes"/>
      <point x="717" y="511" type="line"/>
      <point x="846" y="511" type="line"/>
      <point x="898" y="710" type="line"/>
      <point x="165" y="710" type="line"/>
      <point x="135" y="610" type="line"/>
      <point x="148" y="610" type="line" smooth="yes"/>
      <point x="184" y="610"/>
      <point x="209" y="603"/>
      <point x="200" y="574" type="curve" smooth="yes"/>
      <point x="64" y="137" type="line" smooth="yes"/>
      <point x="54" y="108"/>
      <point x="26" y="101"/>
      <point x="-9" y="101" type="curve" smooth="yes"/>
      <point x="-23" y="101" type="line"/>
    </contour>
    <contour>
      <point x="402" y="387" type="curve"/>
      <point x="377" y="301" type="line"/>
      <point x="476" y="293"/>
      <point x="575" y="285"/>
      <point x="674" y="277" type="curve"/>
      <point x="714" y="412" type="line"/>
      <point x="610" y="404"/>
      <point x="506" y="396"/>
    </contour>
  </outline>
</glyph>
<glyph name="I" format="2">
  <advance width="542"/>
  <unicode hex="0049"/>
  <anchor x="274" y="741" name="top"/>
  <anchor x="343" y="0" name="right"/>
  <anchor x="274" y="0" name="bottom"/>
  <outline>
    <contour>
      <point x="75" y="137" type="line" smooth="yes"/>
      <point x="65" y="108"/>
      <point x="37" y="101"/>
      <point x="1" y="101" type="curve" smooth="yes"/>
      <point x="-23" y="101" type="line"/>
      <point x="-53" y="0" type="line"/>
      <point x="400" y="0" type="line"/>
      <point x="430" y="101" type="line"/>
      <point x="405" y="101" type="line" smooth="yes"/>
      <point x="370" y="101"/>
      <point x="344" y="108"/>
      <point x="354" y="137" type="curve" smooth="yes"/>
      <point x="490" y="574" type="line" smooth="yes"/>
      <point x="500" y="603"/>
      <point x="527" y="610"/>
      <point x="563" y="610" type="curve" smooth="yes"/>
      <point x="588" y="610" type="line"/>
      <point x="618" y="710" type="line"/>
      <point x="165" y="710" type="line"/>
      <point x="135" y="610" type="line"/>
      <point x="160" y="610" type="line" smooth="yes"/>
      <point x="195" y="610"/>
      <point x="220" y="603"/>
      <point x="211" y="574" type="curve" smooth="yes"/>
    </contour>
  </outline>
</glyph>
<glyph name="M" format="2">
  <advance width="1269"/>
  <unicode hex="004D"/>
  <anchor x="625" y="0" name="bottom"/>
  <outline>
    <contour>
      <point x="-53" y="0" type="line"/>
      <point x="204" y="0" type="line"/>
      <point x="234" y="101" type="line"/>
      <point x="224" y="101" type="line" smooth="yes"/>
      <point x="208" y="101"/>
      <point x="173" y="104"/>
      <point x="176" y="111" type="curve" smooth="yes"/>
      <point x="356" y="692" type="line"/>
      <point x="338" y="679" type="line"/>
      <point x="391" y="-10" type="line"/>
      <point x="516" y="-10" type="line"/>
      <point x="997" y="681" type="line"/>
      <point x="983" y="680" type="line"/>
      <point x="807" y="111" type="line" smooth="yes"/>
      <point x="805" y="104"/>
      <point x="761" y="101"/>
      <point x="742" y="101" type="curve" smooth="yes"/>
      <point x="732" y="101" type="line"/>
      <point x="702" y="0" type="line"/>
      <point x="1130" y="0" type="line"/>
      <point x="1159" y="101" type="line"/>
      <point x="1146" y="101" type="line" smooth="yes"/>
      <point x="1111" y="101"/>
      <point x="1085" y="108"/>
      <point x="1095" y="137" type="curve" smooth="yes"/>
      <point x="1231" y="574" type="line" smooth="yes"/>
      <point x="1240" y="603"/>
      <point x="1268" y="610"/>
      <point x="1304" y="610" type="curve" smooth="yes"/>
      <point x="1318" y="610" type="line"/>
      <point x="1347" y="710" type="line"/>
      <point x="901" y="710" type="line"/>
      <point x="623" y="346" type="line"/>
      <point x="644" y="263" type="line"/>
      <point x="620" y="710" type="line"/>
      <point x="165" y="710" type="line"/>
      <point x="135" y="610" type="line"/>
      <point x="148" y="610" type="line" smooth="yes"/>
      <point x="184" y="610"/>
      <point x="209" y="603"/>
      <point x="200" y="574" type="curve" smooth="yes"/>
      <point x="64" y="137" type="line" smooth="yes"/>
      <point x="54" y="108"/>
      <point x="26" y="101"/>
      <point x="-9" y="101" type="curve" smooth="yes"/>
      <point x="-23" y="101" type="line"/>
    </contour>
  </outline>
</glyph>
<glyph name="N" format="2">
  <advance width="992"/>
  <unicode hex="004E"/>
  <anchor x="507" y="741" name="top"/>
  <anchor x="507" y="0" name="bottom"/>
  <outline>
    <contour>
      <point x="-53" y="0" type="line"/>
      <point x="218" y="0" type="line"/>
      <point x="248" y="101" type="line"/>
      <point x="233" y="101" type="line" smooth="yes"/>
      <point x="209" y="101"/>
      <point x="173" y="104"/>
      <point x="176" y="111" type="curve"/>
      <point x="342" y="647" type="line"/>
      <point x="318" y="666" type="line"/>
      <point x="501" y="0" type="line"/>
      <point x="779" y="0" type="line"/>
      <point x="959" y="579" type="line" smooth="yes"/>
      <point x="967" y="608"/>
      <point x="993" y="610"/>
      <point x="1030" y="610" type="curve" smooth="yes"/>
      <point x="1041" y="610" type="line"/>
      <point x="1071" y="710" type="line"/>
      <point x="801" y="710" type="line"/>
      <point x="771" y="610" type="line"/>
      <point x="787" y="610" type="line" smooth="yes"/>
      <point x="809" y="610"/>
      <point x="847" y="607"/>
      <point x="845" y="600" type="curve" smooth="yes"/>
      <point x="715" y="196" type="line"/>
      <point x="733" y="194" type="line"/>
      <point x="590" y="710" type="line"/>
      <point x="165" y="710" type="line"/>
      <point x="135" y="610" type="line"/>
      <point x="148" y="610" type="line" smooth="yes"/>
      <point x="184" y="610"/>
      <point x="208" y="603"/>
      <point x="200" y="574" type="curve" smooth="yes"/>
      <point x="64" y="137" type="line" smooth="yes"/>
      <point x="55" y="108"/>
      <point x="26" y="101"/>
      <point x="-9" y="101" type="curve" smooth="yes"/>
      <point x="-23" y="101" type="line"/>
    </contour>
  </outline>
</glyph>
<glyph name="O" format="2">
  <advance width="1014"/>
  <unicode hex="004F"/>
  <anchor x="509" y="741" name="top"/>
  <anchor x="509" y="0" name="bottom"/>
  <outline>
    <contour>
      <point x="983" y="468" type="curve" smooth="yes"/>
      <point x="983" y="626"/>
      <point x="830" y="735"/>
      <point x="584" y="735" type="curve" smooth="yes"/>
      <point x="188" y="735"/>
      <point x="57" y="457"/>
      <point x="57" y="242" type="curve" smooth="yes"/>
      <point x="57" y="84"/>
      <point x="210" y="-25"/>
      <point x="455" y="-25" type="curve" smooth="yes"/>
      <point x="852" y="-25"/>
      <point x="983" y="253"/>
    </contour>
    <contour>
      <point x="454" y="83" type="curve" smooth="yes"/>
      <point x="371" y="83"/>
      <point x="324" y="102"/>
      <point x="324" y="163" type="curve" smooth="yes"/>
      <point x="324" y="214"/>
      <point x="334" y="280"/>
      <point x="359" y="363" type="curve" smooth="yes"/>
      <point x="418" y="546"/>
      <point x="472" y="627"/>
      <point x="586" y="627" type="curve" smooth="yes"/>
      <point x="668" y="627"/>
      <point x="716" y="609"/>
      <point x="716" y="547" type="curve" smooth="yes"/>
      <point x="716" y="496"/>
      <point x="705" y="430"/>
      <point x="680" y="347" type="curve" smooth="yes"/>
      <point x="622" y="164"/>
      <point x="568" y="83"/>
    </contour>
  </outline>
</glyph>
<glyph name="Q" format="2">
  <advance width="1014"/>
  <unicode hex="0051"/>
  <outline>
    <contour>
      <point x="983" y="468" type="curve" smooth="yes"/>
      <point x="983" y="626"/>
      <point x="830" y="735"/>
      <point x="584" y="735" type="curve" smooth="yes"/>
      <point x="188" y="735"/>
      <point x="57" y="457"/>
      <point x="57" y="242" type="curve" smooth="yes"/>
      <point x="57" y="84"/>
      <point x="210" y="-25"/>
      <point x="455" y="-25" type="curve" smooth="yes"/>
      <point x="852" y="-25"/>
      <point x="983" y="253"/>
    </contour>
    <contour>
      <point x="454" y="83" type="curve" smooth="yes"/>
      <point x="371" y="83"/>
      <point x="324" y="102"/>
      <point x="324" y="163" type="curve" smooth="yes"/>
      <point x="324" y="214"/>
      <point x="334" y="280"/>
      <point x="359" y="363" type="curve" smooth="yes"/>
      <point x="418" y="546"/>
      <point x="472" y="627"/>
      <point x="586" y="627" type="curve" smooth="yes"/>
      <point x="668" y="627"/>
      <point x="716" y="609"/>
      <point x="716" y="547" type="curve" smooth="yes"/>
      <point x="716" y="496"/>
      <point x="705" y="430"/>
      <point x="680" y="347" type="curve" smooth="yes"/>
      <point x="622" y="164"/>
      <point x="568" y="83"/>
    </contour>
    <contour>
      <point x="623" y="-290" type="curve" smooth="yes"/>
      <point x="706" y="-290"/>
      <point x="776" y="-278"/>
      <point x="816" y="-268" type="curve"/>
      <point x="866" y="-97" type="line"/>
      <point x="815" y="-113"/>
      <point x="741" y="-130"/>
      <point x="646" y="-130" type="curve" smooth="yes"/>
      <point x="544" y="-130"/>
      <point x="495" y="-103"/>
      <point x="495" y="-52" type="curve" smooth="yes"/>
      <point x="495" y="-29"/>
      <point x="499" y="-11"/>
      <point x="507" y="8" type="curve"/>
      <point x="373" y="7" type="line"/>
      <point x="357" y="-40"/>
      <point x="346" y="-83"/>
      <point x="346" y="-121" type="curve" smooth="yes"/>
      <point x="346" y="-236"/>
      <point x="453" y="-290"/>
    </contour>
  </outline>
</glyph>
<glyph name="R" format="2">
  <advance width="1004"/>
  <unicode hex="0052"/>
  <anchor x="543" y="741" name="top"/>
  <anchor x="543" y="0" name="bottom"/>
  <outline>
    <contour>
      <point x="-53" y="0" type="line"/>
      <point x="385" y="0" type="line"/>
      <point x="415" y="101" type="line"/>
      <point x="398" y="101" type="line" smooth="yes"/>
      <point x="358" y="101"/>
      <point x="332" y="104"/>
      <point x="334" y="111" type="curve" smooth="yes"/>
      <point x="388" y="279" type="line"/>
      <point x="596" y="279" type="line"/>
      <point x="613" y="295"/>
      <point x="608" y="302"/>
      <point x="645" y="322" type="curve"/>
      <point x="835" y="325"/>
      <point x="968" y="405"/>
      <point x="968" y="533" type="curve" smooth="yes"/>
      <point x="968" y="652"/>
      <point x="859" y="710"/>
      <point x="683" y="710" type="curve" smooth="yes"/>
      <point x="165" y="710" type="line"/>
      <point x="135" y="610" type="line"/>
      <point x="148" y="610" type="line" smooth="yes"/>
      <point x="184" y="610"/>
      <point x="209" y="603"/>
      <point x="200" y="574" type="curve" smooth="yes"/>
      <point x="64" y="137" type="line" smooth="yes"/>
      <point x="54" y="108"/>
      <point x="26" y="101"/>
      <point x="-9" y="101" type="curve" smooth="yes"/>
      <point x="-23" y="101" type="line"/>
    </contour>
    <contour>
      <point x="581" y="617" type="line" smooth="yes"/>
      <point x="651" y="617"/>
      <point x="683" y="595"/>
      <point x="683" y="540" type="curve" smooth="yes"/>
      <point x="683" y="464"/>
      <point x="628" y="372"/>
      <point x="548" y="372" type="curve" smooth="yes"/>
      <point x="415" y="372" type="line"/>
      <point x="491" y="617" type="line"/>
    </contour>
    <contour>
      <point x="486" y="319" type="line"/>
      <point x="587" y="0" type="line"/>
      <point x="881" y="0" type="line"/>
      <point x="911" y="101" type="line"/>
      <point x="897" y="101" type="line" smooth="yes"/>
      <point x="857" y="101"/>
      <point x="834" y="111"/>
      <point x="815" y="162" type="curve" smooth="yes"/>
      <point x="732" y="393" type="line"/>
    </contour>
  </outline>
</glyph>
<glyph name="S" format="2">
  <advance width="838"/>
  <unicode hex="0053"/>
  <anchor x="451" y="741" name="top"/>
  <anchor x="451" y="0" name="bottom"/>
  <outline>
    <contour>
      <point x="423" y="-25" type="curve" smooth="yes"/>
      <point x="686" y="-25"/>
      <point x="779" y="100"/>
      <point x="779" y="253" type="curve" smooth="yes"/>
      <point x="779" y="368"/>
      <point x="666" y="426"/>
      <point x="531" y="471" type="curve" smooth="yes"/>
      <point x="413" y="510"/>
      <point x="346" y="521"/>
      <point x="346" y="572" type="curve" smooth="yes"/>
      <point x="346" y="616"/>
      <point x="380" y="640"/>
      <point x="476" y="640" type="curve" smooth="yes"/>
      <point x="603" y="640"/>
      <point x="656" y="588"/>
      <point x="666" y="506" type="curve"/>
      <point x="796" y="506" type="line"/>
      <point x="862" y="720" type="line"/>
      <point x="754" y="720" type="line"/>
      <point x="690" y="600" type="line"/>
      <point x="684" y="558"/>
      <point x="696" y="561"/>
      <point x="710" y="588" type="curve"/>
      <point x="695" y="682"/>
      <point x="627" y="735"/>
      <point x="466" y="735" type="curve" smooth="yes"/>
      <point x="223" y="735"/>
      <point x="118" y="626"/>
      <point x="118" y="474" type="curve" smooth="yes"/>
      <point x="118" y="366"/>
      <point x="203" y="311"/>
      <point x="320" y="270" type="curve" smooth="yes"/>
      <point x="455" y="221"/>
      <point x="545" y="203"/>
      <point x="545" y="146" type="curve" smooth="yes"/>
      <point x="545" y="93"/>
      <point x="513" y="70"/>
      <point x="412" y="70" type="curve" smooth="yes"/>
      <point x="272" y="70"/>
      <point x="182" y="113"/>
      <point x="167" y="234" type="curve"/>
      <point x="27" y="234" type="line"/>
      <point x="-46" y="1" type="line"/>
      <point x="62" y="1" type="line"/>
      <point x="134" y="138" type="line"/>
      <point x="133" y="178"/>
      <point x="119" y="159"/>
      <point x="116" y="149" type="curve"/>
      <point x="136" y="27"/>
      <point x="233" y="-25"/>
    </contour>
  </outline>
</glyph>
<glyph name="T" format="2">
  <advance width="965"/>
  <unicode hex="0054"/>
  <anchor x="502" y="741" name="top"/>
  <anchor x="502" y="0" name="bottom"/>
  <outline>
    <contour>
      <point x="288" y="137" type="line" smooth="yes"/>
      <point x="279" y="108"/>
      <point x="246" y="101"/>
      <point x="209" y="101" type="curve" smooth="yes"/>
      <point x="187" y="101" type="line"/>
      <point x="157" y="0" type="line"/>
      <point x="617" y="0" type="line"/>
      <point x="647" y="101" type="line"/>
      <point x="624" y="101" type="line" smooth="yes"/>
      <point x="588" y="101"/>
      <point x="558" y="108"/>
      <point x="568" y="137" type="curve" smooth="yes"/>
      <point x="715" y="607" type="line"/>
      <point x="738" y="607" type="line" smooth="yes"/>
      <point x="835" y="607"/>
      <point x="855" y="590"/>
      <point x="848" y="554" type="curve" smooth="yes"/>
      <point x="815" y="398" type="line"/>
      <point x="948" y="398" type="line"/>
      <point x="1041" y="710" type="line"/>
      <point x="167" y="710" type="line"/>
      <point x="74" y="398" type="line"/>
      <point x="207" y="398" type="line"/>
      <point x="272" y="554" type="line" smooth="yes"/>
      <point x="288" y="590"/>
      <point x="316" y="607"/>
      <point x="415" y="607" type="curve" smooth="yes"/>
      <point x="435" y="607" type="line"/>
    </contour>
  </outline>
</glyph>
<glyph name="U" format="2">
  <advance width="927"/>
  <unicode hex="0055"/>
  <anchor x="483" y="741" name="top"/>
  <anchor x="535" y="0" name="right"/>
  <anchor x="483" y="0" name="bottom"/>
  <outline>
    <contour>
      <point x="372" y="280" type="curve" smooth="yes"/>
      <point x="468" y="600" type="line" smooth="yes"/>
      <point x="470" y="607"/>
      <point x="506" y="610"/>
      <point x="532" y="610" type="curve" smooth="yes"/>
      <point x="548" y="610" type="line"/>
      <point x="578" y="710" type="line"/>
      <point x="145" y="710" type="line"/>
      <point x="115" y="610" type="line"/>
      <point x="128" y="610" type="line" smooth="yes"/>
      <point x="164" y="610"/>
      <point x="188" y="603"/>
      <point x="180" y="574" type="curve" smooth="yes"/>
      <point x="103" y="318" type="line" smooth="yes"/>
      <point x="85" y="264"/>
      <point x="78" y="223"/>
      <point x="78" y="189" type="curve" smooth="yes"/>
      <point x="78" y="45"/>
      <point x="215" y="-25"/>
      <point x="426" y="-25" type="curve" smooth="yes"/>
      <point x="619" y="-25"/>
      <point x="742" y="51"/>
      <point x="799" y="234" type="curve" smooth="yes"/>
      <point x="903" y="576" type="line" smooth="yes"/>
      <point x="911" y="604"/>
      <point x="938" y="610"/>
      <point x="975" y="610" type="curve" smooth="yes"/>
      <point x="987" y="610" type="line"/>
      <point x="1018" y="710" type="line"/>
      <point x="742" y="710" type="line"/>
      <point x="711" y="610" type="line"/>
      <point x="728" y="610" type="line" smooth="yes"/>
      <point x="763" y="610"/>
      <point x="798" y="605"/>
      <point x="794" y="593" type="curve" smooth="yes"/>
      <point x="691" y="257" type="line" smooth="yes"/>
      <point x="653" y="140"/>
      <point x="596" y="91"/>
      <point x="485" y="91" type="curve" smooth="yes"/>
      <point x="387" y="91"/>
      <point x="349" y="121"/>
      <point x="349" y="172" type="curve" smooth="yes"/>
      <point x="349" y="197"/>
      <point x="354" y="224"/>
    </contour>
  </outline>
</glyph>
<glyph name="V" format="2">
  <advance width="928"/>
  <unicode hex="0056"/>
  <outline>
    <contour>
      <point x="481" y="77" type="line"/>
      <point x="468" y="599" type="line"/>
      <point x="470" y="606"/>
      <point x="488" y="610"/>
      <point x="543" y="610" type="curve" smooth="yes"/>
      <point x="554" y="610" type="line"/>
      <point x="583" y="710" type="line"/>
      <point x="146" y="710" type="line"/>
      <point x="117" y="610" type="line"/>
      <point x="123" y="610" type="line" smooth="yes"/>
      <point x="163" y="610"/>
      <point x="185" y="595"/>
      <point x="188" y="546" type="curve" smooth="yes"/>
      <point x="212" y="1" type="line"/>
      <point x="528" y="1" type="line"/>
      <point x="896" y="546" type="line" smooth="yes"/>
      <point x="928" y="594"/>
      <point x="959" y="610"/>
      <point x="994" y="610" type="curve" smooth="yes"/>
      <point x="1001" y="610" type="line"/>
      <point x="1030" y="710" type="line"/>
      <point x="752" y="710" type="line"/>
      <point x="723" y="610" type="line"/>
      <point x="733" y="610" type="line" smooth="yes"/>
      <point x="788" y="610"/>
      <point x="802" y="600"/>
      <point x="799" y="587" type="curve"/>
      <point x="452" y="73" type="line"/>
    </contour>
  </outline>
</glyph>
<glyph name="X" format="2">
  <advance width="929"/>
  <unicode hex="0058"/>
  <outline>
    <contour>
      <point x="123" y="610" type="line"/>
      <point x="128" y="610" type="line" smooth="yes"/>
      <point x="159" y="610"/>
      <point x="169" y="603"/>
      <point x="185" y="576" type="curve"/>
      <point x="325" y="338" type="line"/>
      <point x="343" y="328" type="line"/>
      <point x="472" y="111" type="line"/>
      <point x="470" y="104"/>
      <point x="435" y="101"/>
      <point x="410" y="101" type="curve" smooth="yes"/>
      <point x="392" y="101" type="line"/>
      <point x="365" y="0" type="line"/>
      <point x="807" y="0" type="line"/>
      <point x="834" y="101" type="line"/>
      <point x="820" y="101" type="line" smooth="yes"/>
      <point x="789" y="101"/>
      <point x="780" y="107"/>
      <point x="764" y="135" type="curve"/>
      <point x="611" y="389" type="line"/>
      <point x="591" y="401" type="line"/>
      <point x="475" y="601" type="line"/>
      <point x="476" y="607"/>
      <point x="510" y="610"/>
      <point x="536" y="610" type="curve" smooth="yes"/>
      <point x="553" y="610" type="line"/>
      <point x="580" y="710" type="line"/>
      <point x="149" y="710" type="line"/>
    </contour>
    <contour>
      <point x="-68" y="0" type="line"/>
      <point x="200" y="0" type="line"/>
      <point x="227" y="101" type="line"/>
      <point x="206" y="101" type="line" smooth="yes"/>
      <point x="179" y="101"/>
      <point x="151" y="109"/>
      <point x="153" y="118" type="curve"/>
      <point x="435" y="360" type="line"/>
      <point x="359" y="403" type="line"/>
      <point x="59" y="147" type="line" smooth="yes"/>
      <point x="20" y="113"/>
      <point x="2" y="101"/>
      <point x="-29" y="101" type="curve" smooth="yes"/>
      <point x="-41" y="101" type="line"/>
    </contour>
    <contour>
      <point x="577" y="311" type="line"/>
      <point x="861" y="565" type="line" smooth="yes"/>
      <point x="898" y="596"/>
      <point x="919" y="610"/>
      <point x="952" y="610" type="curve" smooth="yes"/>
      <point x="957" y="610" type="line"/>
      <point x="984" y="710" type="line"/>
      <point x="721" y="710" type="line"/>
      <point x="695" y="610" type="line"/>
      <point x="709" y="610" type="line" smooth="yes"/>
      <point x="737" y="610"/>
      <point x="768" y="603"/>
      <point x="765" y="593" type="curve"/>
      <point x="541" y="400" type="line"/>
    </contour>
  </outline>
</glyph>
<glyph name="e" format="2">
  <advance width="805"/>
  <unicode hex="0065"/>
  <anchor x="410" y="572" name="top"/>
  <anchor x="595" y="1" name="right"/>
  <anchor x="436" y="0" name="bottom"/>
  <outline>
    <contour>
      <point x="389" y="-15" type="curve" smooth="yes"/>
      <point x="557" y="-15"/>
      <point x="660" y="44"/>
      <point x="734" y="139" type="curve"/>
      <point x="640" y="206" type="line"/>
      <point x="597" y="160"/>
      <point x="541" y="104"/>
      <point x="445" y="104" type="curve" smooth="yes"/>
      <point x="346" y="104"/>
      <point x="297" y="135"/>
      <point x="297" y="233" type="curve" smooth="yes"/>
      <point x="297" y="367"/>
      <point x="359" y="478"/>
      <point x="476" y="478" type="curve" smooth="yes"/>
      <point x="527" y="478"/>
      <point x="547" y="457"/>
      <point x="547" y="417" type="curve" smooth="yes"/>
      <point x="547" y="318"/>
      <point x="435" y="303"/>
      <point x="237" y="298" type="curve"/>
      <point x="243" y="215" type="line"/>
      <point x="565" y="222"/>
      <point x="771" y="276"/>
      <point x="771" y="428" type="curve" smooth="yes"/>
      <point x="771" y="511"/>
      <point x="690" y="584"/>
      <point x="502" y="584" type="curve" smooth="yes"/>
      <point x="216" y="584"/>
      <point x="42" y="421"/>
      <point x="42" y="214" type="curve" smooth="yes"/>
      <point x="42" y="71"/>
      <point x="175" y="-15"/>
    </contour>
  </outline>
</glyph>
<glyph name="h" format="2">
  <advance width="908"/>
  <unicode hex="0068"/>
  <anchor x="468" y="755" name="top"/>
  <anchor x="457" y="0" name="bottom"/>
  <outline>
    <contour>
      <point x="15" y="0" type="line"/>
      <point x="218" y="663" type="line" smooth="yes"/>
      <point x="221" y="672"/>
      <point x="201" y="677"/>
      <point x="167" y="683" type="curve" smooth="yes"/>
      <point x="158" y="685" type="line"/>
      <point x="186" y="780" type="line"/>
      <point x="517" y="780" type="line"/>
      <point x="279" y="0" type="line"/>
    </contour>
    <contour>
      <point x="793" y="252" type="line" smooth="yes"/>
      <point x="769" y="182"/>
      <point x="759" y="157"/>
      <point x="759" y="143" type="curve" smooth="yes"/>
      <point x="759" y="125"/>
      <point x="771" y="118"/>
      <point x="795" y="118" type="curve" smooth="yes"/>
      <point x="811" y="118"/>
      <point x="828" y="118"/>
      <point x="844" y="118" type="curve"/>
      <point x="813" y="0" type="line"/>
      <point x="750" y="0"/>
      <point x="687" y="0"/>
      <point x="624" y="0" type="curve" smooth="yes"/>
      <point x="538" y="0"/>
      <point x="487" y="34"/>
      <point x="487" y="96" type="curve" smooth="yes"/>
      <point x="487" y="127"/>
      <point x="498" y="161"/>
      <point x="527" y="247" type="curve" smooth="yes"/>
      <point x="568" y="376" type="line" smooth="yes"/>
      <point x="575" y="397"/>
      <point x="580" y="415"/>
      <point x="580" y="428" type="curve" smooth="yes"/>
      <point x="580" y="441"/>
      <point x="571" y="449"/>
      <point x="545" y="449" type="curve" smooth="yes"/>
      <point x="485" y="449"/>
      <point x="427" y="391"/>
      <point x="343" y="305" type="curve"/>
      <point x="354" y="392" type="line"/>
      <point x="460" y="511"/>
      <point x="556" y="585"/>
      <point x="706" y="585" type="curve" smooth="yes"/>
      <point x="805" y="585"/>
      <point x="854" y="549"/>
      <point x="854" y="492" type="curve" smooth="yes"/>
      <point x="854" y="460"/>
      <point x="846" y="425"/>
      <point x="837" y="397" type="curve" smooth="yes"/>
    </contour>
  </outline>
</glyph>
<glyph name="i" format="2">
  <advance width="481"/>
  <unicode hex="0069"/>
  <anchor x="257" y="572" name="top"/>
  <anchor x="313" y="-10" name="right"/>
  <anchor x="255" y="-10" name="bottom"/>
  <outline>
    <contour>
      <point x="153" y="455" type="curve" smooth="yes"/>
      <point x="89" y="247" type="line" smooth="yes"/>
      <point x="60" y="161"/>
      <point x="48" y="127"/>
      <point x="48" y="96" type="curve" smooth="yes"/>
      <point x="48" y="34"/>
      <point x="99" y="0"/>
      <point x="185" y="0" type="curve" smooth="yes"/>
      <point x="248" y="0"/>
      <point x="310" y="0"/>
      <point x="373" y="0" type="curve"/>
      <point x="404" y="118" type="line"/>
      <point x="387" y="118"/>
      <point x="371" y="118"/>
      <point x="353" y="118" type="curve" smooth="yes"/>
      <point x="329" y="118"/>
      <point x="318" y="125"/>
      <point x="318" y="143" type="curve" smooth="yes"/>
      <point x="318" y="157"/>
      <point x="329" y="182"/>
      <point x="353" y="252" type="curve" smooth="yes"/>
      <point x="450" y="572" type="line"/>
      <point x="118" y="572" type="line"/>
      <point x="91" y="476" type="line"/>
      <point x="101" y="474" type="line" smooth="yes"/>
      <point x="135" y="469"/>
      <point x="155" y="464"/>
    </contour>
    <contour>
      <point x="337" y="610" type="curve" smooth="yes"/>
      <point x="429" y="610"/>
      <point x="484" y="645"/>
      <point x="484" y="717" type="curve" smooth="yes"/>
      <point x="484" y="788"/>
      <point x="429" y="824"/>
      <point x="337" y="824" type="curve" smooth="yes"/>
      <point x="244" y="824"/>
      <point x="190" y="788"/>
      <point x="190" y="717" type="curve" smooth="yes"/>
      <point x="190" y="643"/>
      <point x="244" y="610"/>
    </contour>
  </outline>
</glyph>
<glyph name="m" format="2">
  <advance width="1337"/>
  <unicode hex="006D"/>
  <anchor x="672" y="-10" name="bottom"/>
  <outline>
    <contour>
      <point x="15" y="0" type="line"/>
      <point x="154" y="455" type="line" smooth="yes"/>
      <point x="157" y="464"/>
      <point x="137" y="469"/>
      <point x="103" y="474" type="curve" smooth="yes"/>
      <point x="94" y="476" type="line"/>
      <point x="122" y="572" type="line"/>
      <point x="407" y="572" type="line"/>
      <point x="395" y="416" type="line"/>
      <point x="399" y="396" type="line"/>
      <point x="279" y="0" type="line"/>
    </contour>
    <contour>
      <point x="1222" y="252" type="line" smooth="yes"/>
      <point x="1198" y="182"/>
      <point x="1188" y="157"/>
      <point x="1188" y="143" type="curve" smooth="yes"/>
      <point x="1188" y="125"/>
      <point x="1200" y="118"/>
      <point x="1224" y="118" type="curve" smooth="yes"/>
      <point x="1240" y="118"/>
      <point x="1257" y="118"/>
      <point x="1273" y="118" type="curve"/>
      <point x="1242" y="0" type="line"/>
      <point x="1180" y="0"/>
      <point x="1116" y="0"/>
      <point x="1053" y="0" type="curve" smooth="yes"/>
      <point x="967" y="0"/>
      <point x="916" y="34"/>
      <point x="916" y="96" type="curve" smooth="yes"/>
      <point x="916" y="127"/>
      <point x="927" y="161"/>
      <point x="956" y="247" type="curve" smooth="yes"/>
      <point x="997" y="376" type="line" smooth="yes"/>
      <point x="1005" y="397"/>
      <point x="1009" y="414"/>
      <point x="1009" y="427" type="curve" smooth="yes"/>
      <point x="1009" y="440"/>
      <point x="1002" y="449"/>
      <point x="976" y="449" type="curve" smooth="yes"/>
      <point x="917" y="449"/>
      <point x="859" y="391"/>
      <point x="776" y="305" type="curve"/>
      <point x="787" y="392" type="line"/>
      <point x="889" y="505"/>
      <point x="984" y="585"/>
      <point x="1137" y="585" type="curve" smooth="yes"/>
      <point x="1234" y="585"/>
      <point x="1283" y="549"/>
      <point x="1283" y="492" type="curve" smooth="yes"/>
      <point x="1283" y="461"/>
      <point x="1275" y="425"/>
      <point x="1266" y="397" type="curve" smooth="yes"/>
    </contour>
    <contour>
      <point x="449" y="0" type="line"/>
      <point x="563" y="375" type="line" smooth="yes"/>
      <point x="569" y="396"/>
      <point x="574" y="412"/>
      <point x="574" y="426" type="curve" smooth="yes"/>
      <point x="574" y="439"/>
      <point x="568" y="449"/>
      <point x="541" y="449" type="curve" smooth="yes"/>
      <point x="481" y="449"/>
      <point x="423" y="391"/>
      <point x="340" y="305" type="curve"/>
      <point x="351" y="392" type="line"/>
      <point x="452" y="505"/>
      <point x="542" y="585"/>
      <point x="692" y="585" type="curve" smooth="yes"/>
      <point x="785" y="585"/>
      <point x="824" y="548"/>
      <point x="824" y="491" type="curve" smooth="yes"/>
      <point x="824" y="483"/>
      <point x="827" y="381"/>
      <point x="827" y="379" type="curve" smooth="yes"/>
      <point x="714" y="0" type="line"/>
    </contour>
  </outline>
</glyph>
<glyph name="n" format="2">
  <advance width="908"/>
  <unicode hex="006E"/>
  <anchor x="448" y="572" name="top"/>
  <anchor x="456" y="0" name="bottom"/>
  <outline>
    <contour>
      <point x="15" y="0" type="line"/>
      <point x="154" y="455" type="line" smooth="yes"/>
      <point x="157" y="464"/>
      <point x="137" y="469"/>
      <point x="103" y="474" type="curve" smooth="yes"/>
      <point x="94" y="476" type="line"/>
      <point x="122" y="572" type="line"/>
      <point x="407" y="572" type="line"/>
      <point x="395" y="416" type="line"/>
      <point x="399" y="396" type="line"/>
      <point x="279" y="0" type="line"/>
    </contour>
    <contour>
      <point x="793" y="252" type="line" smooth="yes"/>
      <point x="769" y="182"/>
      <point x="759" y="157"/>
      <point x="759" y="143" type="curve" smooth="yes"/>
      <point x="759" y="125"/>
      <point x="771" y="118"/>
      <point x="795" y="118" type="curve" smooth="yes"/>
      <point x="811" y="118"/>
      <point x="828" y="118"/>
      <point x="844" y="118" type="curve"/>
      <point x="813" y="0" type="line"/>
      <point x="750" y="0"/>
      <point x="687" y="0"/>
      <point x="624" y="0" type="curve" smooth="yes"/>
      <point x="538" y="0"/>
      <point x="487" y="34"/>
      <point x="487" y="96" type="curve" smooth="yes"/>
      <point x="487" y="127"/>
      <point x="498" y="161"/>
      <point x="527" y="247" type="curve" smooth="yes"/>
      <point x="568" y="376" type="line" smooth="yes"/>
      <point x="575" y="397"/>
      <point x="580" y="415"/>
      <point x="580" y="428" type="curve" smooth="yes"/>
      <point x="580" y="441"/>
      <point x="571" y="449"/>
      <point x="545" y="449" type="curve" smooth="yes"/>
      <point x="485" y="449"/>
      <point x="427" y="391"/>
      <point x="343" y="305" type="curve"/>
      <point x="354" y="392" type="line"/>
      <point x="460" y="511"/>
      <point x="556" y="585"/>
      <point x="706" y="585" type="curve" smooth="yes"/>
      <point x="805" y="585"/>
      <point x="854" y="549"/>
      <point x="854" y="492" type="curve" smooth="yes"/>
      <point x="854" y="460"/>
      <point x="846" y="425"/>
      <point x="837" y="397" type="curve" smooth="yes"/>
    </contour>
  </outline>
</glyph>
<glyph name="o" format="2">
  <advance width="863"/>
  <unicode hex="006F"/>
  <anchor x="432" y="572" name="top"/>
  <anchor x="551" y="0" name="right"/>
  <anchor x="432" y="0" name="bottom"/>
  <outline>
    <contour>
      <point x="42" y="221" type="curve" smooth="yes"/>
      <point x="42" y="64"/>
      <point x="180" y="-15"/>
      <point x="385" y="-15" type="curve" smooth="yes"/>
      <point x="725" y="-15"/>
      <point x="821" y="189"/>
      <point x="821" y="348" type="curve" smooth="yes"/>
      <point x="821" y="504"/>
      <point x="683" y="584"/>
      <point x="479" y="584" type="curve" smooth="yes"/>
      <point x="138" y="584"/>
      <point x="42" y="380"/>
    </contour>
    <contour>
      <point x="537" y="254" type="curve" smooth="yes"/>
      <point x="508" y="168"/>
      <point x="482" y="91"/>
      <point x="391" y="91" type="curve" smooth="yes"/>
      <point x="314" y="91"/>
      <point x="293" y="119"/>
      <point x="293" y="152" type="curve" smooth="yes"/>
      <point x="293" y="194"/>
      <point x="306" y="252"/>
      <point x="327" y="315" type="curve" smooth="yes"/>
      <point x="355" y="401"/>
      <point x="381" y="478"/>
      <point x="472" y="478" type="curve" smooth="yes"/>
      <point x="549" y="478"/>
      <point x="570" y="450"/>
      <point x="570" y="417" type="curve" smooth="yes"/>
      <point x="570" y="375"/>
      <point x="558" y="317"/>
    </contour>
  </outline>
</glyph>
<glyph name="s" format="2">
  <advance width="755"/>
  <unicode hex="0073"/>
  <anchor x="378" y="572" name="top"/>
  <anchor x="382" y="0" name="bottom"/>
  <outline>
    <contour>
      <point x="327" y="-12" type="curve" smooth="yes"/>
      <point x="566" y="-12"/>
      <point x="689" y="48"/>
      <point x="689" y="203" type="curve" smooth="yes"/>
      <point x="689" y="310"/>
      <point x="591" y="339"/>
      <point x="486" y="373" type="curve" smooth="yes"/>
      <point x="406" y="398"/>
      <point x="338" y="407"/>
      <point x="338" y="443" type="curve" smooth="yes"/>
      <point x="338" y="481"/>
      <point x="371" y="494"/>
      <point x="442" y="494" type="curve" smooth="yes"/>
      <point x="528" y="494"/>
      <point x="576" y="472"/>
      <point x="604" y="463" type="curve"/>
      <point x="619" y="474"/>
      <point x="602" y="526"/>
      <point x="548" y="520" type="curve"/>
      <point x="516" y="418" type="line"/>
      <point x="698" y="418" type="line"/>
      <point x="738" y="548" type="line"/>
      <point x="712" y="559"/>
      <point x="598" y="587"/>
      <point x="459" y="587" type="curve" smooth="yes"/>
      <point x="205" y="587"/>
      <point x="99" y="517"/>
      <point x="99" y="386" type="curve" smooth="yes"/>
      <point x="99" y="278"/>
      <point x="186" y="257"/>
      <point x="284" y="227" type="curve" smooth="yes"/>
      <point x="354" y="207"/>
      <point x="443" y="193"/>
      <point x="443" y="146" type="curve" smooth="yes"/>
      <point x="443" y="103"/>
      <point x="412" y="81"/>
      <point x="334" y="81" type="curve" smooth="yes"/>
      <point x="247" y="81"/>
      <point x="181" y="104"/>
      <point x="153" y="108" type="curve"/>
      <point x="125" y="106"/>
      <point x="125" y="59"/>
      <point x="186" y="49" type="curve"/>
      <point x="232" y="181" type="line"/>
      <point x="46" y="181" type="line"/>
      <point x="1" y="32" type="line"/>
      <point x="39" y="21"/>
      <point x="167" y="-12"/>
    </contour>
  </outline>
</glyph>
<glyph name="t" format="2">
  <advance width="615"/>
  <unicode hex="0074"/>
  <anchor x="277" y="675" name="top"/>
  <anchor x="460" y="681" name="right"/>
  <anchor x="395" y="0" name="bottom"/>
  <outline>
    <contour>
      <point x="254" y="0" type="curve" smooth="yes"/>
      <point x="377" y="0"/>
      <point x="445" y="0"/>
      <point x="486" y="0" type="curve"/>
      <point x="520" y="123" type="line"/>
      <point x="508" y="123"/>
      <point x="461" y="123"/>
      <point x="395" y="123" type="curve" smooth="yes"/>
      <point x="366" y="123"/>
      <point x="345" y="131"/>
      <point x="345" y="154" type="curve" smooth="yes"/>
      <point x="345" y="163"/>
      <point x="349" y="176"/>
      <point x="356" y="201" type="curve" smooth="yes"/>
      <point x="520" y="737" type="line"/>
      <point x="265" y="737" type="line"/>
      <point x="235" y="632" type="line" smooth="yes"/>
      <point x="216" y="573"/>
      <point x="172" y="567"/>
      <point x="111" y="567" type="curve" smooth="yes"/>
      <point x="98" y="567" type="line"/>
      <point x="68" y="465" type="line"/>
      <point x="629" y="465" type="line"/>
      <point x="661" y="572" type="line"/>
      <point x="365" y="572" type="line"/>
      <point x="201" y="552" type="line"/>
      <point x="93" y="194" type="line" smooth="yes"/>
      <point x="84" y="166"/>
      <point x="78" y="139"/>
      <point x="78" y="114" type="curve" smooth="yes"/>
      <point x="78" y="34"/>
      <point x="141" y="0"/>
    </contour>
  </outline>
</glyph>
<glyph name="u" format="2">
  <advance width="901"/>
  <unicode hex="0075"/>
  <anchor x="431" y="572" name="top"/>
  <anchor x="623" y="0" name="right"/>
  <anchor x="427" y="0" name="bottom"/>
  <outline>
    <contour>
      <point x="340" y="198" type="curve" smooth="yes"/>
      <point x="455" y="572" type="line"/>
      <point x="122" y="572" type="line"/>
      <point x="94" y="476" type="line"/>
      <point x="103" y="474" type="line" smooth="yes"/>
      <point x="137" y="469"/>
      <point x="157" y="464"/>
      <point x="154" y="455" type="curve" smooth="yes"/>
      <point x="70" y="177" type="line" smooth="yes"/>
      <point x="61" y="149"/>
      <point x="54" y="114"/>
      <point x="54" y="82" type="curve" smooth="yes"/>
      <point x="54" y="25"/>
      <point x="103" y="-11"/>
      <point x="197" y="-11" type="curve" smooth="yes"/>
      <point x="347" y="-11"/>
      <point x="438" y="63"/>
      <point x="539" y="182" type="curve"/>
      <point x="551" y="269" type="line"/>
      <point x="466" y="183"/>
      <point x="406" y="125"/>
      <point x="357" y="125" type="curve" smooth="yes"/>
      <point x="336" y="125"/>
      <point x="327" y="133"/>
      <point x="327" y="146" type="curve" smooth="yes"/>
      <point x="327" y="159"/>
      <point x="332" y="177"/>
    </contour>
    <contour>
      <point x="644" y="0" type="curve" smooth="yes"/>
      <point x="699" y="0"/>
      <point x="752" y="0"/>
      <point x="807" y="0" type="curve"/>
      <point x="838" y="118" type="line"/>
      <point x="822" y="118"/>
      <point x="805" y="118"/>
      <point x="788" y="118" type="curve" smooth="yes"/>
      <point x="764" y="118"/>
      <point x="752" y="125"/>
      <point x="752" y="143" type="curve" smooth="yes"/>
      <point x="752" y="157"/>
      <point x="763" y="182"/>
      <point x="786" y="252" type="curve" smooth="yes"/>
      <point x="884" y="572" type="line"/>
      <point x="619" y="572" type="line"/>
      <point x="495" y="161" type="line"/>
      <point x="509" y="156" type="line"/>
      <point x="508" y="126"/>
      <point x="508" y="108"/>
      <point x="508" y="97" type="curve" smooth="yes"/>
      <point x="508" y="35"/>
      <point x="559" y="0"/>
    </contour>
  </outline>
</glyph>
<glyph name="v" format="2">
  <advance width="799"/>
  <unicode hex="0076"/>
  <outline>
    <contour>
      <point x="392" y="572" type="line"/>
      <point x="423" y="64" type="line"/>
      <point x="410" y="134" type="line"/>
      <point x="495" y="280"/>
      <point x="580" y="425"/>
      <point x="666" y="572" type="curve"/>
      <point x="841" y="572" type="line"/>
      <point x="841" y="565" type="line"/>
      <point x="706" y="377"/>
      <point x="570" y="188"/>
      <point x="435" y="0" type="curve"/>
      <point x="177" y="0" type="line"/>
      <point x="139" y="455" type="line" smooth="yes"/>
      <point x="138" y="464"/>
      <point x="122" y="470"/>
      <point x="85" y="474" type="curve" smooth="yes"/>
      <point x="72" y="476" type="line"/>
      <point x="99" y="572" type="line"/>
    </contour>
  </outline>
</glyph>
<glyph name="w" format="2">
  <advance width="1230"/>
  <unicode hex="0077"/>
  <anchor x="632" y="572" name="top"/>
  <outline>
    <contour>
      <point x="631" y="572" type="line"/>
      <point x="550" y="426"/>
      <point x="467" y="282"/>
      <point x="385" y="137" type="curve"/>
      <point x="405" y="64" type="line"/>
      <point x="388" y="572" type="line"/>
      <point x="99" y="572" type="line"/>
      <point x="72" y="476" type="line"/>
      <point x="85" y="474" type="line" smooth="yes"/>
      <point x="122" y="470"/>
      <point x="139" y="464"/>
      <point x="139" y="455" type="curve" smooth="yes"/>
      <point x="161" y="0" type="line"/>
      <point x="416" y="0" type="line"/>
      <point x="504" y="147"/>
      <point x="592" y="294"/>
      <point x="680" y="440" type="curve"/>
      <point x="622" y="465" type="line"/>
      <point x="633" y="0" type="line"/>
      <point x="882" y="0" type="line"/>
      <point x="1012" y="188"/>
      <point x="1143" y="377"/>
      <point x="1273" y="565" type="curve"/>
      <point x="1273" y="572" type="line"/>
      <point x="1098" y="572" type="line"/>
      <point x="1017" y="425"/>
      <point x="937" y="280"/>
      <point x="856" y="134" type="curve"/>
      <point x="870" y="64" type="line"/>
      <point x="853" y="572" type="line"/>
    </contour>
  </outline>
</glyph>
<glyph name="x" format="2">
  <advance width="786"/>
  <unicode hex="0078"/>
  <outline>
    <contour>
      <point x="513" y="270" type="line"/>
      <point x="824" y="561" type="line"/>
      <point x="824" y="572" type="line"/>
      <point x="630" y="572" type="line"/>
      <point x="449" y="323" type="line"/>
    </contour>
    <contour>
      <point x="-32" y="0" type="line"/>
      <point x="162" y="0" type="line"/>
      <point x="344" y="240" type="line"/>
      <point x="279" y="293" type="line"/>
      <point x="-32" y="11" type="line"/>
    </contour>
    <contour>
      <point x="497" y="0" type="curve"/>
      <point x="562" y="0"/>
      <point x="628" y="0"/>
      <point x="692" y="0" type="curve"/>
      <point x="723" y="118" type="line"/>
      <point x="702" y="118"/>
      <point x="682" y="118"/>
      <point x="661" y="118" type="curve"/>
      <point x="628" y="118"/>
      <point x="616" y="125"/>
      <point x="606" y="143" type="curve" smooth="yes"/>
      <point x="388" y="572" type="line"/>
      <point x="123" y="572" type="line"/>
      <point x="95" y="476" type="line"/>
      <point x="110" y="474" type="line" smooth="yes"/>
      <point x="147" y="470"/>
      <point x="175" y="466"/>
      <point x="183" y="449" type="curve" smooth="yes"/>
      <point x="370" y="72" type="line" smooth="yes"/>
      <point x="398" y="16"/>
      <point x="423" y="0"/>
    </contour>
  </outline>
</glyph>
<glyph name="cent" format="2">
  <advance width="686"/>
  <unicode hex="00A2"/>
  <outline>
    <contour>
      <point x="361" y="-12" type="curve" smooth="yes"/>
      <point x="514" y="-12"/>
      <point x="587" y="46"/>
      <point x="647" y="127" type="curve"/>
      <point x="552" y="183" type="line"/>
      <point x="503" y="126"/>
      <point x="467" y="81"/>
      <point x="365" y="81" type="curve" smooth="yes"/>
      <point x="263" y="81"/>
      <point x="225" y="102"/>
      <point x="225" y="182" type="curve" smooth="yes"/>
      <point x="225" y="279"/>
      <point x="245" y="494"/>
      <point x="446" y="494" type="curve" smooth="yes"/>
      <point x="524" y="494"/>
      <point x="582" y="482"/>
      <point x="616" y="457" type="curve"/>
      <point x="613" y="467"/>
      <point x="594" y="531"/>
      <point x="550" y="530" type="curve"/>
      <point x="495" y="343" type="line"/>
      <point x="676" y="343" type="line"/>
      <point x="730" y="527" type="line"/>
      <point x="696" y="544"/>
      <point x="601" y="583"/>
      <point x="453" y="583" type="curve" smooth="yes"/>
      <point x="153" y="583"/>
      <point x="11" y="423"/>
      <point x="11" y="237" type="curve" smooth="yes"/>
      <point x="11" y="80"/>
      <point x="154" y="-12"/>
    </contour>
    <contour>
      <point x="173" y="-166" type="line"/>
      <point x="309" y="-166" type="line"/>
      <point x="365" y="20" type="line"/>
      <point x="338" y="33" type="line"/>
      <point x="492" y="536" type="line"/>
      <point x="528" y="555" type="line"/>
      <point x="573" y="703" type="line"/>
      <point x="438" y="703" type="line"/>
      <point x="390" y="546" type="line"/>
      <point x="417" y="534" type="line"/>
      <point x="263" y="28" type="line"/>
      <point x="227" y="11" type="line"/>
    </contour>
  </outline>
</glyph>
<glyph name="sterling" format="2">
  <advance width="686"/>
  <unicode hex="00A3"/>
  <outline>
    <contour>
      <point x="479" y="632" type="curve" smooth="yes"/>
      <point x="544" y="632"/>
      <point x="596" y="618"/>
      <point x="626" y="595" type="curve"/>
      <point x="614" y="603"/>
      <point x="577" y="678"/>
      <point x="539" y="680" type="curve"/>
      <point x="485" y="505" type="line"/>
      <point x="673" y="505" type="line"/>
      <point x="726" y="681" type="line"/>
      <point x="685" y="706"/>
      <point x="587" y="735"/>
      <point x="447" y="735" type="curve" smooth="yes"/>
      <point x="203" y="735"/>
      <point x="97" y="662"/>
      <point x="97" y="554" type="curve" smooth="yes"/>
      <point x="97" y="473"/>
      <point x="170" y="433"/>
      <point x="170" y="348" type="curve" smooth="yes"/>
      <point x="170" y="233"/>
      <point x="121" y="165"/>
      <point x="-29" y="144" type="curve"/>
      <point x="-73" y="-13" type="line"/>
      <point x="213" y="22"/>
      <point x="374" y="182"/>
      <point x="374" y="352" type="curve" smooth="yes"/>
      <point x="374" y="422"/>
      <point x="364" y="457"/>
      <point x="364" y="509" type="curve" smooth="yes"/>
      <point x="364" y="590"/>
      <point x="389" y="632"/>
    </contour>
    <contour>
      <point x="45" y="420" type="line"/>
      <point x="13" y="309" type="line"/>
      <point x="521" y="309" type="line"/>
      <point x="554" y="420" type="line"/>
    </contour>
    <contour>
      <point x="414" y="-10" type="curve" smooth="yes"/>
      <point x="549" y="-10"/>
      <point x="600" y="77"/>
      <point x="653" y="228" type="curve"/>
      <point x="538" y="264" type="line"/>
      <point x="507" y="192"/>
      <point x="488" y="170"/>
      <point x="421" y="170" type="curve" smooth="yes"/>
      <point x="340" y="170"/>
      <point x="329" y="196"/>
      <point x="309" y="234" type="curve"/>
      <point x="240" y="176" type="line"/>
      <point x="269" y="42"/>
      <point x="294" y="-10"/>
    </contour>
  </outline>
</glyph>
<glyph name="AE" format="2">
  <advance width="1409"/>
  <unicode hex="00C6"/>
  <anchor x="837" y="741" name="top"/>
  <outline>
    <contour>
      <point x="281" y="290" type="line"/>
      <point x="250" y="207" type="line"/>
      <point x="643" y="207" type="line"/>
      <point x="657" y="290" type="line"/>
    </contour>
    <contour>
      <point x="930" y="408" type="curve"/>
      <point x="905" y="322" type="line"/>
      <point x="1004" y="313"/>
      <point x="1101" y="306"/>
      <point x="1200" y="298" type="curve"/>
      <point x="1239" y="433" type="line"/>
      <point x="1136" y="425"/>
      <point x="1033" y="417"/>
    </contour>
    <contour>
      <point x="-53" y="0" type="line"/>
      <point x="242" y="0" type="line"/>
      <point x="272" y="101" type="line"/>
      <point x="262" y="101" type="line" smooth="yes"/>
      <point x="207" y="101"/>
      <point x="194" y="111"/>
      <point x="198" y="124" type="curve"/>
      <point x="693" y="611" type="line"/>
      <point x="729" y="611" type="line"/>
      <point x="581" y="137" type="line"/>
      <point x="572" y="108"/>
      <point x="544" y="101"/>
      <point x="508" y="101" type="curve" smooth="yes"/>
      <point x="494" y="101" type="line"/>
      <point x="464" y="0" type="line"/>
      <point x="1246" y="0" type="line"/>
      <point x="1311" y="224" type="line"/>
      <point x="1180" y="224" type="line"/>
      <point x="1133" y="143" type="line" smooth="yes"/>
      <point x="1114" y="107"/>
      <point x="1078" y="98"/>
      <point x="983" y="98" type="curve" smooth="yes"/>
      <point x="848" y="98" type="line"/>
      <point x="1008" y="612" type="line"/>
      <point x="1154" y="612" type="line" smooth="yes"/>
      <point x="1223" y="612"/>
      <point x="1258" y="603"/>
      <point x="1256" y="567" type="curve" smooth="yes"/>
      <point x="1252" y="511" type="line"/>
      <point x="1381" y="511" type="line"/>
      <point x="1434" y="710" type="line"/>
      <point x="476" y="710" type="line"/>
      <point x="446" y="610" type="line"/>
      <point x="456" y="610" type="line" smooth="yes"/>
      <point x="491" y="610"/>
      <point x="524" y="603"/>
      <point x="514" y="574" type="curve"/>
      <point x="95" y="165" type="line" smooth="yes"/>
      <point x="48" y="116"/>
      <point x="20" y="101"/>
      <point x="-15" y="101" type="curve" smooth="yes"/>
      <point x="-22" y="101" type="line"/>
    </contour>
  </outline>
</glyph>
<glyph name="Aogonek" format="2">
  <advance width="960"/>
  <unicode hex="0104"/>
  <outline>
    <contour>
      <point x="435" y="-252" type="curve" smooth="yes"/>
      <point x="296" y="-252"/>
      <point x="222" y="-222"/>
      <point x="222" y="-148" type="curve" smooth="yes"/>
      <point x="222" y="-66"/>
      <point x="282" y="-29"/>
      <point x="647" y="58" type="curve"/>
      <point x="662" y="14" type="line"/>
      <point x="460" y="-63"/>
      <point x="445" y="-93"/>
      <point x="445" y="-126" type="curve" smooth="yes"/>
      <point x="445" y="-158"/>
      <point x="465" y="-170"/>
      <point x="503" y="-170" type="curve" smooth="yes"/>
      <point x="547" y="-170"/>
      <point x="584" y="-147"/>
      <point x="610" y="-131" type="curve"/>
      <point x="653" y="-189" type="line"/>
      <point x="603" y="-228"/>
      <point x="537" y="-252"/>
    </contour>
    <contour>
      <point x="194" y="207" type="line"/>
      <point x="226" y="290" type="line"/>
      <point x="560" y="290" type="line"/>
      <point x="546" y="207" type="line"/>
    </contour>
    <contour>
      <point x="518" y="651" type="line"/>
      <point x="169" y="124" type="line"/>
      <point x="165" y="111"/>
      <point x="179" y="101"/>
      <point x="234" y="101" type="curve" smooth="yes"/>
      <point x="244" y="101" type="line"/>
      <point x="215" y="0" type="line"/>
      <point x="-66" y="0" type="line"/>
      <point x="-37" y="101" type="line"/>
      <point x="-29" y="101" type="line" smooth="yes"/>
      <point x="5" y="101"/>
      <point x="37" y="116"/>
      <point x="69" y="165" type="curve" smooth="yes"/>
      <point x="441" y="722" type="line"/>
      <point x="764" y="722" type="line"/>
      <point x="793" y="165" type="line" smooth="yes"/>
      <point x="795" y="115"/>
      <point x="818" y="101"/>
      <point x="858" y="101" type="curve" smooth="yes"/>
      <point x="864" y="101" type="line"/>
      <point x="835" y="0" type="line"/>
      <point x="522" y="0" type="line"/>
      <point x="500" y="646" type="line"/>
    </contour>
  </outline>
</glyph>
<glyph name="iogonek" format="2">
  <advance width="481"/>
  <unicode hex="012F"/>
  <outline>
    <contour>
      <point x="341" y="47" type="line"/>
      <point x="-23" y="-30"/>
      <point x="-83" y="-67"/>
      <point x="-83" y="-148" type="curve" smooth="yes"/>
      <point x="-83" y="-222"/>
      <point x="-10" y="-252"/>
      <point x="129" y="-252" type="curve" smooth="yes"/>
      <point x="231" y="-252"/>
      <point x="297" y="-228"/>
      <point x="347" y="-189" type="curve"/>
      <point x="304" y="-131" type="line"/>
      <point x="277" y="-147"/>
      <point x="241" y="-170"/>
      <point x="197" y="-170" type="curve" smooth="yes"/>
      <point x="159" y="-170"/>
      <point x="139" y="-158"/>
      <point x="139" y="-125" type="curve" smooth="yes"/>
      <point x="139" y="-90"/>
      <point x="154" y="-60"/>
      <point x="356" y="7" type="curve"/>
    </contour>
    <component base="i"/>
  </outline>
</glyph>
<glyph name="Ldot" format="2">
  <advance width="890"/>
  <unicode hex="013F"/>
  <outline>
    <contour>
      <point x="618" y="710" type="line"/>
      <point x="165" y="710" type="line"/>
      <point x="135" y="610" type="line"/>
      <point x="148" y="610" type="line" smooth="yes"/>
      <point x="184" y="610"/>
      <point x="209" y="603"/>
      <point x="200" y="574" type="curve" smooth="yes"/>
      <point x="64" y="137" type="line" smooth="yes"/>
      <point x="54" y="108"/>
      <point x="26" y="101"/>
      <point x="-9" y="101" type="curve" smooth="yes"/>
      <point x="-23" y="101" type="line"/>
      <point x="-53" y="0" type="line"/>
      <point x="728" y="0" type="line"/>
      <point x="800" y="245" type="line"/>
      <point x="669" y="245" type="line"/>
      <point x="615" y="143" type="line" smooth="yes"/>
      <point x="597" y="107"/>
      <point x="560" y="98"/>
      <point x="465" y="98" type="curve" smooth="yes"/>
      <point x="330" y="98" type="line"/>
      <point x="478" y="574" type="line" smooth="yes"/>
      <point x="486" y="603"/>
      <point x="515" y="610"/>
      <point x="563" y="610" type="curve" smooth="yes"/>
      <point x="588" y="610" type="line"/>
    </contour>
    <component base="periodcentered" xOffset="491" yOffset="108"/>
  </outline>
</glyph>
<glyph name="tbar" format="2">
  <advance width="617"/>
  <unicode hex="0167"/>
  <outline>
    <contour>
      <point x="606" y="358" type="line"/>
      <point x="40" y="358" type="line"/>
      <point x="10" y="261" type="line"/>
      <point x="577" y="261" type="line"/>
    </contour>
    <component base="t"/>
  </outline>
</glyph>
<glyph name="ohorn" format="2">
  <advance width="964"/>
  <unicode hex="01A1"/>
  <anchor x="485" y="572" name="top"/>
  <outline>
    <contour>
      <point x="385" y="-15" type="curve" smooth="yes"/>
      <point x="710" y="-15"/>
      <point x="813" y="182"/>
      <point x="813" y="284" type="curve" smooth="yes"/>
      <point x="813" y="380"/>
      <point x="741" y="443"/>
      <point x="658" y="480" type="curve"/>
      <point x="690" y="444" type="line"/>
      <point x="700" y="477" type="line"/>
      <point x="637" y="489" type="line"/>
      <point x="689" y="465"/>
      <point x="746" y="451"/>
      <point x="796" y="451" type="curve"/>
      <point x="927" y="451"/>
      <point x="1003" y="519"/>
      <point x="1043" y="758" type="curve"/>
      <point x="855" y="758" type="line"/>
      <point x="826" y="631"/>
      <point x="793" y="555"/>
      <point x="723" y="555" type="curve" smooth="yes"/>
      <point x="663" y="555"/>
      <point x="591" y="584"/>
      <point x="479" y="584" type="curve" smooth="yes"/>
      <point x="138" y="584"/>
      <point x="42" y="380"/>
      <point x="42" y="221" type="curve" smooth="yes"/>
      <point x="42" y="64"/>
      <point x="180" y="-15"/>
    </contour>
    <contour>
      <point x="391" y="91" type="curve" smooth="yes"/>
      <point x="314" y="91"/>
      <point x="293" y="119"/>
      <point x="293" y="152" type="curve" smooth="yes"/>
      <point x="293" y="194"/>
      <point x="306" y="252"/>
      <point x="327" y="315" type="curve" smooth="yes"/>
      <point x="355" y="401"/>
      <point x="381" y="478"/>
      <point x="472" y="478" type="curve" smooth="yes"/>
      <point x="549" y="478"/>
      <point x="570" y="450"/>
      <point x="570" y="417" type="curve" smooth="yes"/>
      <point x="570" y="375"/>
      <point x="558" y="317"/>
      <point x="537" y="254" type="curve" smooth="yes"/>
      <point x="508" y="168"/>
      <point x="482" y="91"/>
    </contour>
  </outline>
</glyph>
<glyph name="dotlessj" format="2">
  <advance width="491"/>
  <unicode hex="0237"/>
  <anchor x="224" y="572" name="top"/>
  <outline>
    <contour>
      <point x="27" y="-45" type="line" smooth="yes"/>
      <point x="5" y="-116"/>
      <point x="-28" y="-143"/>
      <point x="-97" y="-143" type="curve" smooth="yes"/>
      <point x="-143" y="-143"/>
      <point x="-187" y="-129"/>
      <point x="-213" y="-120" type="curve"/>
      <point x="-243" y="-223" type="line"/>
      <point x="-222" y="-231"/>
      <point x="-157" y="-250"/>
      <point x="-42" y="-250" type="curve" smooth="yes"/>
      <point x="129" y="-250"/>
      <point x="244" y="-199"/>
      <point x="286" y="-59" type="curve" smooth="yes"/>
      <point x="480" y="572" type="line"/>
      <point x="142" y="572" type="line"/>
      <point x="112" y="471" type="line"/>
      <point x="126" y="469" type="line" smooth="yes"/>
      <point x="161" y="464"/>
      <point x="184" y="460"/>
      <point x="179" y="445" type="curve" smooth="yes"/>
    </contour>
  </outline>
</glyph>
<glyph name="won" format="2">
  <advance width="686"/>
  <unicode hex="20A9"/>
  <outline>
    <contour>
      <point x="9" y="0" type="line"/>
      <point x="191" y="0" type="line"/>
      <point x="472" y="703" type="line"/>
      <point x="447" y="707" type="line"/>
      <point x="310" y="0" type="line"/>
      <point x="482" y="0" type="line"/>
      <point x="685" y="574" type="line" smooth="yes"/>
      <point x="698" y="608"/>
      <point x="711" y="617"/>
      <point x="737" y="617" type="curve" smooth="yes"/>
      <point x="747" y="617" type="line"/>
      <point x="775" y="710" type="line"/>
      <point x="639" y="710" type="line"/>
      <point x="611" y="617" type="line"/>
      <point x="616" y="617" type="line" smooth="yes"/>
      <point x="637" y="617"/>
      <point x="642" y="612"/>
      <point x="638" y="599" type="curve"/>
      <point x="431" y="8" type="line"/>
      <point x="446" y="10" type="line"/>
      <point x="574" y="710" type="line"/>
      <point x="424" y="710" type="line"/>
      <point x="138" y="12" type="line"/>
      <point x="149" y="15" type="line"/>
      <point x="289" y="607" type="line"/>
      <point x="291" y="614"/>
      <point x="302" y="617"/>
      <point x="320" y="617" type="curve" smooth="yes"/>
      <point x="325" y="617" type="line"/>
      <point x="352" y="710" type="line"/>
      <point x="136" y="710" type="line"/>
      <point x="108" y="617" type="line"/>
      <point x="119" y="617" type="line" smooth="yes"/>
      <point x="135" y="617"/>
      <point x="153" y="614"/>
      <point x="145" y="580" type="curve" smooth="yes"/>
    </contour>
    <contour>
      <point x="54" y="512" type="line"/>
      <point x="26" y="418" type="line"/>
      <point x="242" y="418" type="line"/>
      <point x="242" y="440" type="line"/>
      <point x="344" y="491" type="line"/>
      <point x="358" y="512" type="line"/>
    </contour>
    <contour>
      <point x="529" y="491" type="line"/>
      <point x="590" y="440" type="line"/>
      <point x="585" y="418" type="line"/>
      <point x="709" y="418" type="line"/>
      <point x="737" y="512" type="line"/>
      <point x="528" y="512" type="line"/>
    </contour>
    <contour>
      <point x="249" y="205" type="line"/>
      <point x="379" y="205" type="line"/>
      <point x="370" y="225" type="line"/>
      <point x="328" y="262" type="line"/>
      <point x="268" y="225" type="line"/>
    </contour>
    <contour>
      <point x="130" y="300" type="line"/>
      <point x="-11" y="300" type="line"/>
      <point x="-39" y="206" type="line"/>
      <point x="116" y="206" type="line"/>
    </contour>
    <contour>
      <point x="521" y="206" type="line"/>
      <point x="644" y="206" type="line"/>
      <point x="672" y="300" type="line"/>
      <point x="554" y="300" type="line"/>
    </contour>
  </outline>
</glyph>
<glyph name="litre" format="2">
  <advance width="712"/>
  <unicode hex="2113"/>
  <outline>
    <contour>
      <point x="395" y="223" type="curve" smooth="yes"/>
      <point x="395" y="578"/>
      <point x="424" y="613"/>
      <point x="468" y="613" type="curve" smooth="yes"/>
      <point x="495" y="613"/>
      <point x="501" y="595"/>
      <point x="501" y="535" type="curve" smooth="yes"/>
      <point x="501" y="341"/>
      <point x="396" y="302"/>
      <point x="22" y="230" type="curve"/>
      <point x="42" y="146" type="line"/>
      <point x="485" y="233"/>
      <point x="669" y="376"/>
      <point x="669" y="552" type="curve" smooth="yes"/>
      <point x="669" y="622"/>
      <point x="614" y="710"/>
      <point x="482" y="710" type="curve"/>
      <point x="287" y="710"/>
      <point x="153" y="575"/>
      <point x="153" y="223" type="curve" smooth="yes"/>
      <point x="153" y="60"/>
      <point x="231" y="-10"/>
      <point x="407" y="-10" type="curve" smooth="yes"/>
      <point x="565" y="-10"/>
      <point x="616" y="64"/>
      <point x="660" y="169" type="curve"/>
      <point x="569" y="202" type="line"/>
      <point x="536" y="131"/>
      <point x="512" y="89"/>
      <point x="462" y="89" type="curve" smooth="yes"/>
      <point x="407" y="89"/>
      <point x="395" y="111"/>
    </contour>
  </outline>
</glyph>
<glyph name="servicemark" format="2">
  <advance width="1685"/>
  <unicode hex="2120"/>
  <outline>
    <contour>
      <point x="714" y="238" type="line"/>
      <point x="928" y="238" type="line"/>
      <point x="951" y="317" type="line"/>
      <point x="949" y="317" type="line" smooth="yes"/>
      <point x="932" y="317"/>
      <point x="906" y="320"/>
      <point x="907" y="323" type="curve" smooth="yes"/>
      <point x="1022" y="705" type="line"/>
      <point x="1016" y="706" type="line"/>
      <point x="1033" y="236" type="line"/>
      <point x="1172" y="236" type="line"/>
      <point x="1466" y="706" type="line"/>
      <point x="1459" y="704" type="line"/>
      <point x="1344" y="323" type="line" smooth="yes"/>
      <point x="1343" y="320"/>
      <point x="1316" y="317"/>
      <point x="1298" y="317" type="curve" smooth="yes"/>
      <point x="1292" y="317" type="line"/>
      <point x="1270" y="238" type="line"/>
      <point x="1559" y="238" type="line"/>
      <point x="1582" y="317" type="line"/>
      <point x="1568" y="317" type="line" smooth="yes"/>
      <point x="1537" y="317"/>
      <point x="1519" y="322"/>
      <point x="1525" y="337" type="curve" smooth="yes"/>
      <point x="1608" y="609" type="line" smooth="yes"/>
      <point x="1613" y="626"/>
      <point x="1632" y="630"/>
      <point x="1664" y="630" type="curve" smooth="yes"/>
      <point x="1678" y="630" type="line"/>
      <point x="1701" y="710" type="line"/>
      <point x="1373" y="710" type="line"/>
      <point x="1114" y="283" type="line"/>
      <point x="1188" y="291" type="line"/>
      <point x="1181" y="710" type="line"/>
      <point x="855" y="710" type="line"/>
      <point x="832" y="630" type="line"/>
      <point x="844" y="630" type="line" smooth="yes"/>
      <point x="876" y="630"/>
      <point x="896" y="626"/>
      <point x="890" y="609" type="curve" smooth="yes"/>
      <point x="807" y="337" type="line" smooth="yes"/>
      <point x="803" y="322"/>
      <point x="780" y="317"/>
      <point x="749" y="317" type="curve" smooth="yes"/>
      <point x="737" y="317" type="line"/>
    </contour>
    <contour>
      <point x="211" y="565" type="curve" smooth="yes"/>
      <point x="211" y="487"/>
      <point x="276" y="454"/>
      <point x="353" y="427" type="curve" smooth="yes"/>
      <point x="436" y="398"/>
      <point x="505" y="389"/>
      <point x="505" y="346" type="curve" smooth="yes"/>
      <point x="505" y="311"/>
      <point x="479" y="297"/>
      <point x="417" y="297" type="curve" smooth="yes"/>
      <point x="341" y="297"/>
      <point x="261" y="324"/>
      <point x="250" y="390" type="curve"/>
      <point x="155" y="390" type="line"/>
      <point x="107" y="230" type="line"/>
      <point x="193" y="230" type="line"/>
      <point x="238" y="332" type="line"/>
      <point x="214" y="353" type="line"/>
      <point x="215" y="272"/>
      <point x="303" y="227"/>
      <point x="427" y="227" type="curve" smooth="yes"/>
      <point x="588" y="227"/>
      <point x="670" y="272"/>
      <point x="670" y="398" type="curve" smooth="yes"/>
      <point x="670" y="476"/>
      <point x="592" y="508"/>
      <point x="515" y="535" type="curve" smooth="yes"/>
      <point x="427" y="568"/>
      <point x="370" y="577"/>
      <point x="370" y="609" type="curve" smooth="yes"/>
      <point x="370" y="641"/>
      <point x="388" y="651"/>
      <point x="449" y="651" type="curve" smooth="yes"/>
      <point x="540" y="651"/>
      <point x="581" y="626"/>
      <point x="593" y="577" type="curve"/>
      <point x="686" y="577" type="line"/>
      <point x="728" y="720" type="line"/>
      <point x="644" y="720" type="line"/>
      <point x="602" y="635" type="line"/>
      <point x="632" y="592" type="line"/>
      <point x="619" y="687"/>
      <point x="575" y="721"/>
      <point x="439" y="721" type="curve" smooth="yes"/>
      <point x="268" y="721"/>
      <point x="211" y="651"/>
    </contour>
  </outline>
</glyph>
<glyph name="radical" format="2">
  <advance width="856"/>
  <unicode hex="221A"/>
  <outline>
    <contour>
      <point x="56" y="303" type="line"/>
      <point x="210" y="303" type="line"/>
      <point x="164" y="390" type="line"/>
      <point x="152" y="0" type="line"/>
      <point x="336" y="0" type="line"/>
      <point x="353" y="22" type="line"/>
      <point x="377" y="431" type="line"/>
      <point x="92" y="431" type="line"/>
    </contour>
    <contour>
      <point x="760" y="710" type="line"/>
      <point x="294" y="0" type="line"/>
      <point x="462" y="0" type="line"/>
      <point x="940" y="710" type="line"/>
    </contour>
  </outline>
</glyph>
<glyph name="hook" format="2">
  <advance width="613"/>
  <unicode hex="2440"/>
  <anchor x="286" y="517" name="_top"/>
  <outline>
    <contour>
      <point x="44" y="804" type="line"/>
      <point x="76" y="911"/>
      <point x="184" y="954"/>
      <point x="322" y="954" type="curve" smooth="yes"/>
      <point x="491" y="954"/>
      <point x="572" y="912"/>
      <point x="572" y="829" type="curve" smooth="yes"/>
      <point x="572" y="716"/>
      <point x="469" y="679"/>
      <point x="245" y="679" type="curve"/>
      <point x="348" y="725" type="line"/>
      <point x="317" y="632" type="line"/>
      <point x="167" y="632" type="line"/>
      <point x="201" y="741" type="line"/>
      <point x="345" y="745"/>
      <point x="385" y="762"/>
      <point x="385" y="817" type="curve" smooth="yes"/>
      <point x="385" y="851"/>
      <point x="366" y="862"/>
      <point x="313" y="862" type="curve" smooth="yes"/>
      <point x="261" y="862"/>
      <point x="236" y="846"/>
      <point x="220" y="804" type="curve"/>
    </contour>
  </outline>
</glyph>
<glyph name="acute.uc" format="2">
  <advance width="613"/>
  <anchor x="272" y="727" name="_top"/>
  <outline>
    <contour>
      <point x="310" y="946" type="curve" smooth="yes"/>
      <point x="173" y="822" type="line"/>
      <point x="160" y="778" type="line"/>
      <point x="226" y="778" type="line"/>
      <point x="394" y="804" type="line" smooth="yes"/>
      <point x="510" y="825"/>
      <point x="564" y="854"/>
      <point x="564" y="924" type="curve" smooth="yes"/>
      <point x="564" y="976"/>
      <point x="522" y="1016"/>
      <point x="450" y="1016" type="curve" smooth="yes"/>
      <point x="389" y="1016"/>
      <point x="354" y="989"/>
    </contour>
  </outline>
</glyph>
<glyph name="breve_tilde.uc" format="2">
  <advance width="613"/>
  <anchor x="349" y="694" name="_top"/>
  <outline>
    <contour>
      <point x="275" y="1096" type="curve" smooth="yes"/>
      <point x="333" y="1096"/>
      <point x="338" y="1023"/>
      <point x="469" y="1023" type="curve" smooth="yes"/>
      <point x="564" y="1023"/>
      <point x="618" y="1067"/>
      <point x="666" y="1218" type="curve"/>
      <point x="562" y="1242" type="line"/>
      <point x="537" y="1180"/>
      <point x="523" y="1161"/>
      <point x="488" y="1161" type="curve" smooth="yes"/>
      <point x="432" y="1161"/>
      <point x="427" y="1232"/>
      <point x="306" y="1232" type="curve" smooth="yes"/>
      <point x="206" y="1232"/>
      <point x="159" y="1190"/>
      <point x="99" y="1047" type="curve"/>
      <point x="203" y="1020" type="line"/>
      <point x="229" y="1078"/>
      <point x="241" y="1096"/>
    </contour>
    <contour>
      <point x="313" y="781" type="curve" smooth="yes"/>
      <point x="138" y="781"/>
      <point x="60" y="825"/>
      <point x="60" y="915" type="curve" smooth="yes"/>
      <point x="60" y="936"/>
      <point x="64" y="967"/>
      <point x="69" y="984" type="curve"/>
      <point x="200" y="984" type="line"/>
      <point x="196" y="936"/>
      <point x="210" y="916"/>
      <point x="317" y="916" type="curve" smooth="yes"/>
      <point x="432" y="916"/>
      <point x="454" y="929"/>
      <point x="471" y="984" type="curve"/>
      <point x="602" y="984" type="line"/>
      <point x="598" y="819"/>
      <point x="493" y="781"/>
    </contour>
  </outline>
</glyph>
<glyph name="caron.alt" format="2">
  <advance width="613"/>
  <anchor x="149" y="574" name="_right"/>
  <outline>
    <contour>
      <point x="351" y="543" type="line"/>
      <point x="181" y="543" type="line"/>
      <point x="194" y="589" type="line"/>
      <point x="254" y="710" type="line"/>
      <point x="487" y="710" type="line"/>
    </contour>
  </outline>
</glyph>
<glyph name="circumflex_acute" format="2">
  <advance width="615"/>
  <anchor x="313" y="558" name="_top"/>
  <outline>
    <contour>
      <point x="646" y="937" type="curve" smooth="yes"/>
      <point x="566" y="812" type="line"/>
      <point x="556" y="769" type="line"/>
      <point x="623" y="769" type="line"/>
      <point x="770" y="828" type="line" smooth="yes"/>
      <point x="836" y="857"/>
      <point x="895" y="887"/>
      <point x="895" y="953" type="curve" smooth="yes"/>
      <point x="895" y="1003"/>
      <point x="847" y="1036"/>
      <point x="787" y="1036" type="curve" smooth="yes"/>
      <point x="722" y="1036"/>
      <point x="684" y="999"/>
    </contour>
    <component base="circumflex"/>
  </outline>
</glyph>
<glyph name="four.oldprop" format="2">
  <advance width="796"/>
  <outline>
    <contour>
      <point x="-26" y="89" type="line"/>
      <point x="714" y="89" type="line"/>
      <point x="757" y="242" type="line"/>
      <point x="100" y="242" type="line"/>
      <point x="69" y="172" type="line"/>
      <point x="541" y="596" type="line"/>
      <point x="566" y="645" type="line"/>
      <point x="458" y="645" type="line"/>
      <point x="24" y="264" type="line"/>
    </contour>
    <contour>
      <point x="541" y="-70" type="line"/>
      <point x="760" y="645" type="line"/>
      <point x="532" y="645" type="line"/>
      <point x="522" y="619" type="line"/>
      <point x="310" y="-70" type="line"/>
    </contour>
  </outline>
</glyph>
<glyph name="franc.proportional" format="2">
  <advance width="792"/>
  <outline>
    <contour>
      <point x="-36" y="0" type="line"/>
      <point x="387" y="0" type="line"/>
      <point x="417" y="101" type="line"/>
      <point x="393" y="101" type="line" smooth="yes"/>
      <point x="351" y="101"/>
      <point x="315" y="104"/>
      <point x="317" y="111" type="curve" smooth="yes"/>
      <point x="474" y="612" type="line"/>
      <point x="568" y="612" type="line" smooth="yes"/>
      <point x="637" y="612"/>
      <point x="665" y="606"/>
      <point x="667" y="569" type="curve" smooth="yes"/>
      <point x="669" y="527" type="line"/>
      <point x="797" y="527" type="line"/>
      <point x="850" y="710" type="line"/>
      <point x="182" y="710" type="line"/>
      <point x="152" y="610" type="line"/>
      <point x="166" y="610" type="line" smooth="yes"/>
      <point x="202" y="610"/>
      <point x="227" y="603"/>
      <point x="217" y="574" type="curve" smooth="yes"/>
      <point x="81" y="137" type="line" smooth="yes"/>
      <point x="72" y="108"/>
      <point x="43" y="101"/>
      <point x="8" y="101" type="curve" smooth="yes"/>
      <point x="-6" y="101" type="line"/>
    </contour>
    <contour>
      <point x="400" y="437" type="curve"/>
      <point x="377" y="361" type="line"/>
      <point x="463" y="353"/>
      <point x="548" y="347"/>
      <point x="634" y="340" type="curve"/>
      <point x="669" y="459" type="line"/>
      <point x="579" y="452"/>
      <point x="489" y="445"/>
    </contour>
    <contour>
      <point x="49" y="274" type="line"/>
      <point x="25" y="192" type="line"/>
      <point x="539" y="192" type="line"/>
      <point x="563" y="274" type="line"/>
    </contour>
  </outline>
</glyph>
<glyph name="lira.alt" format="2">
  <advance width="686"/>
  <outline>
    <contour>
      <point x="-49" y="0" type="line"/>
      <point x="580" y="0" type="line"/>
      <point x="645" y="235" type="line"/>
      <point x="512" y="235" type="line"/>
      <point x="481" y="180" type="line" smooth="yes"/>
      <point x="460" y="142"/>
      <point x="425" y="135"/>
      <point x="330" y="135" type="curve" smooth="yes"/>
      <point x="143" y="135" type="line"/>
      <point x="126" y="115" type="line"/>
      <point x="265" y="132"/>
      <point x="393" y="197"/>
      <point x="393" y="341" type="curve" smooth="yes"/>
      <point x="393" y="420"/>
      <point x="383" y="466"/>
      <point x="383" y="522" type="curve" smooth="yes"/>
      <point x="383" y="596"/>
      <point x="399" y="639"/>
      <point x="491" y="639" type="curve" smooth="yes"/>
      <point x="556" y="639"/>
      <point x="618" y="624"/>
      <point x="647" y="602" type="curve"/>
      <point x="635" y="611"/>
      <point x="602" y="678"/>
      <point x="564" y="680" type="curve"/>
      <point x="527" y="564" type="line"/>
      <point x="711" y="564" type="line"/>
      <point x="750" y="691" type="line"/>
      <point x="699" y="716"/>
      <point x="604" y="735"/>
      <point x="468" y="735" type="curve" smooth="yes"/>
      <point x="234" y="735"/>
      <point x="136" y="678"/>
      <point x="136" y="585" type="curve" smooth="yes"/>
      <point x="136" y="515"/>
      <point x="196" y="459"/>
      <point x="196" y="349" type="curve" smooth="yes"/>
      <point x="196" y="219"/>
      <point x="129" y="175"/>
      <point x="-8" y="142" type="curve"/>
    </contour>
    <contour>
      <point x="38" y="361" type="line"/>
      <point x="15" y="283" type="line"/>
      <point x="525" y="283" type="line"/>
      <point x="548" y="361" type="line"/>
    </contour>
    <contour>
      <point x="82" y="504" type="line"/>
      <point x="60" y="426" type="line"/>
      <point x="569" y="426" type="line"/>
      <point x="592" y="504" type="line"/>
    </contour>
  </outline>
</glyph>
<glyph name="peseta.proportional" format="2">
  <advance width="1175"/>
  <outline>
    <contour>
      <point x="-60" y="0" type="line"/>
      <point x="309" y="0" type="line"/>
      <point x="337" y="95" type="line"/>
      <point x="324" y="95" type="line" smooth="yes"/>
      <point x="300" y="95"/>
      <point x="258" y="98"/>
      <point x="260" y="105" type="curve" smooth="yes"/>
      <point x="299" y="222" type="line"/>
      <point x="381" y="222" type="line" smooth="yes"/>
      <point x="594" y="222"/>
      <point x="743" y="327"/>
      <point x="743" y="512" type="curve" smooth="yes"/>
      <point x="743" y="629"/>
      <point x="664" y="710"/>
      <point x="446" y="710" type="curve" smooth="yes"/>
      <point x="156" y="710" type="line"/>
      <point x="129" y="615" type="line"/>
      <point x="135" y="615" type="line"/>
      <point x="177" y="615"/>
      <point x="193" y="608"/>
      <point x="184" y="579" type="curve" smooth="yes"/>
      <point x="45" y="131" type="line" smooth="yes"/>
      <point x="36" y="102"/>
      <point x="15" y="95"/>
      <point x="-27" y="95" type="curve"/>
      <point x="-33" y="95" type="line"/>
    </contour>
    <contour>
      <point x="444" y="615" type="line" smooth="yes"/>
      <point x="502" y="615"/>
      <point x="533" y="593"/>
      <point x="533" y="538" type="curve" smooth="yes"/>
      <point x="533" y="511"/>
      <point x="528" y="487"/>
      <point x="519" y="453" type="curve" smooth="yes"/>
      <point x="482" y="330"/>
      <point x="429" y="317"/>
      <point x="366" y="317" type="curve" smooth="yes"/>
      <point x="327" y="317" type="line"/>
      <point x="419" y="615" type="line"/>
    </contour>
    <contour>
      <point x="829" y="539" type="line"/>
      <point x="719" y="188" type="line" smooth="yes"/>
      <point x="708" y="148"/>
      <point x="702" y="126"/>
      <point x="702" y="105" type="curve"/>
      <point x="702" y="40"/>
      <point x="759" y="0"/>
      <point x="861" y="0" type="curve" smooth="yes"/>
      <point x="942" y="0"/>
      <point x="1012" y="0"/>
      <point x="1032" y="0" type="curve"/>
      <point x="1061" y="102" type="line"/>
      <point x="1042" y="102"/>
      <point x="1024" y="102"/>
      <point x="998" y="102" type="curve" smooth="yes"/>
      <point x="960" y="102"/>
      <point x="941" y="111"/>
      <point x="941" y="136" type="curve"/>
      <point x="941" y="147"/>
      <point x="945" y="165"/>
      <point x="952" y="190" type="curve" smooth="yes"/>
      <point x="1113" y="710" type="line"/>
      <point x="900" y="710" type="line"/>
      <point x="871" y="614" type="line" smooth="yes"/>
      <point x="852" y="555"/>
      <point x="830" y="542"/>
      <point x="775" y="542" type="curve" smooth="yes"/>
      <point x="687" y="542" type="line"/>
      <point x="667" y="471" type="line"/>
      <point x="1183" y="471" type="line"/>
      <point x="1208" y="555" type="line"/>
      <point x="895" y="555" type="line"/>
    </contour>
  </outline>
</glyph>
<glyph name="six.midprop" format="2">
  <advance width="771"/>
  <outline>
    <contour>
      <point x="768" y="647" type="line"/>
      <point x="538" y="642"/>
      <point x="405" y="552"/>
      <point x="331" y="445" type="curve" smooth="yes"/>
      <point x="269" y="351"/>
      <point x="250" y="244"/>
      <point x="250" y="167" type="curve" smooth="yes"/>
      <point x="250" y="112"/>
      <point x="274" y="83"/>
      <point x="335" y="83" type="curve" smooth="yes"/>
      <point x="410" y="83"/>
      <point x="452" y="158"/>
      <point x="472" y="226" type="curve" smooth="yes"/>
      <point x="482" y="264"/>
      <point x="487" y="301"/>
      <point x="487" y="321" type="curve" smooth="yes"/>
      <point x="487" y="360"/>
      <point x="472" y="381"/>
      <point x="414" y="381" type="curve" smooth="yes"/>
      <point x="363" y="381"/>
      <point x="323" y="363"/>
      <point x="255" y="295" type="curve"/>
      <point x="252" y="331" type="line"/>
      <point x="322" y="411"/>
      <point x="385" y="474"/>
      <point x="513" y="474" type="curve" smooth="yes"/>
      <point x="647" y="474"/>
      <point x="727" y="409"/>
      <point x="727" y="309" type="curve" smooth="yes"/>
      <point x="727" y="129"/>
      <point x="606" y="-10"/>
      <point x="324" y="-10" type="curve" smooth="yes"/>
      <point x="127" y="-10"/>
      <point x="16" y="72"/>
      <point x="16" y="204" type="curve" smooth="yes"/>
      <point x="16" y="465"/>
      <point x="231" y="732"/>
      <point x="764" y="751" type="curve"/>
    </contour>
  </outline>
</glyph>
<glyph name="two.oldtab" format="2">
  <advance width="686"/>
  <outline>
    <contour>
      <point x="616" y="173" type="line"/>
      <point x="55" y="173" type="line"/>
      <point x="64" y="153" type="line"/>
      <point x="426" y="246"/>
      <point x="673" y="263"/>
      <point x="673" y="478" type="curve" smooth="yes"/>
      <point x="673" y="602"/>
      <point x="569" y="655"/>
      <point x="378" y="655" type="curve" smooth="yes"/>
      <point x="259" y="655"/>
      <point x="165" y="621"/>
      <point x="116" y="598" type="curve"/>
      <point x="58" y="408" type="line"/>
      <point x="238" y="408" type="line"/>
      <point x="289" y="574" type="line"/>
      <point x="242" y="569"/>
      <point x="201" y="546"/>
      <point x="216" y="532" type="curve"/>
      <point x="231" y="536"/>
      <point x="283" y="556"/>
      <point x="336" y="556" type="curve" smooth="yes"/>
      <point x="397" y="556"/>
      <point x="425" y="544"/>
      <point x="425" y="488" type="curve" smooth="yes"/>
      <point x="425" y="355"/>
      <point x="343" y="283"/>
      <point x="17" y="204" type="curve"/>
      <point x="-42" y="0" type="line"/>
      <point x="567" y="0" type="line"/>
    </contour>
  </outline>
</glyph>
<glyph name="won.proportional" format="2">
  <advance width="1220"/>
  <outline>
    <contour>
      <point x="191" y="710" type="line"/>
      <point x="164" y="617" type="line"/>
      <point x="174" y="617" type="line" smooth="yes"/>
      <point x="206" y="617"/>
      <point x="215" y="607"/>
      <point x="211" y="580" type="curve" smooth="yes"/>
      <point x="141" y="0" type="line"/>
      <point x="368" y="0" type="line"/>
      <point x="706" y="603" type="line"/>
      <point x="678" y="603" type="line"/>
      <point x="643" y="0" type="line"/>
      <point x="866" y="0" type="line"/>
      <point x="1148" y="574" type="line" smooth="yes"/>
      <point x="1165" y="608"/>
      <point x="1178" y="617"/>
      <point x="1212" y="617" type="curve" smooth="yes"/>
      <point x="1221" y="617" type="line"/>
      <point x="1249" y="710" type="line"/>
      <point x="1043" y="710" type="line"/>
      <point x="1015" y="617" type="line"/>
      <point x="1023" y="617" type="line" smooth="yes"/>
      <point x="1048" y="617"/>
      <point x="1068" y="612"/>
      <point x="1065" y="599" type="curve"/>
      <point x="781" y="8" type="line"/>
      <point x="838" y="10" type="line"/>
      <point x="875" y="710" type="line"/>
      <point x="669" y="710" type="line"/>
      <point x="283" y="12" type="line"/>
      <point x="342" y="15" type="line"/>
      <point x="418" y="607" type="line"/>
      <point x="420" y="614"/>
      <point x="442" y="617"/>
      <point x="464" y="617" type="curve" smooth="yes"/>
      <point x="473" y="617" type="line"/>
      <point x="501" y="710" type="line"/>
    </contour>
    <contour>
      <point x="85" y="512" type="line"/>
      <point x="57" y="418" type="line"/>
      <point x="364" y="418" type="line"/>
      <point x="364" y="440" type="line"/>
      <point x="597" y="492" type="line"/>
      <point x="610" y="512" type="line"/>
    </contour>
    <contour>
      <point x="827" y="492" type="line"/>
      <point x="1029" y="440" type="line"/>
      <point x="1024" y="418" type="line"/>
      <point x="1207" y="418" type="line"/>
      <point x="1235" y="512" type="line"/>
      <point x="825" y="512" type="line"/>
    </contour>
    <contour>
      <point x="431" y="205" type="line"/>
      <point x="712" y="205" type="line"/>
      <point x="705" y="234" type="line"/>
      <point x="588" y="277" type="line"/>
      <point x="452" y="234" type="line"/>
    </contour>
    <contour>
      <point x="896" y="206" type="line"/>
      <point x="1142" y="206" type="line"/>
      <point x="1170" y="300" type="line"/>
      <point x="930" y="300" type="line"/>
    </contour>
    <contour>
      <point x="315" y="300" type="line"/>
      <point x="20" y="300" type="line"/>
      <point x="-8" y="206" type="line"/>
      <point x="304" y="206" type="line"/>
    </contour>
  </outline>
</glyph>
